HIERARCHY
ROOT Hips
{
	OFFSET 0.00 0.00 0.00
	CHANNELS 6 Xposition Yposition Zposition Xrotation Yrotation Zrotation
	JOINT Spine
	{
		OFFSET 0.00000 9.62115 0.00000
		CHANNELS 3 Xrotation Yrotation Zrotation
		JOINT Head
		{
			OFFSET 0.00000 12.77195 0.00000
			CHANNELS 3 Xrotation Yrotation Zrotation
			End Site
			{
				OFFSET 0.00000 4.52755 0.00000
			}
		}
		JOINT LeftShoulder
		{
			OFFSET 0.00000 7.40057 0.00000
			CHANNELS 3 Xrotation Yrotation Zrotation
			JOINT LeftArm
			{
				OFFSET 8.34930 0.00000 0.00000
				CHANNELS 3 Xrotation Yrotation Zrotation
				JOINT LeftForeArm
				{
					OFFSET 11.33484 0.00000 0.00000
					CHANNELS 3 Yrotation Zrotation Xrotation
					JOINT LeftHand
					{
						OFFSET 9.69418 0.00000 0.00000
						CHANNELS 3 Xrotation Yrotation Zrotation
						JOINT LeftHandThumb1
						{
							OFFSET 0.00000 0.00000 0.00000
							CHANNELS 3 Xrotation Zrotation Yrotation
							End Site
							{
								OFFSET 0.00000 0.00000 3.93700
							}
						}
						End Site
						{
							OFFSET 3.93700 0.00000 0.00000
						}
					}
				}
			}
		}
		JOINT RightShoulder
		{
			OFFSET 0.00000 7.40057 0.00000
			CHANNELS 3 Xrotation Yrotation Zrotation
			JOINT RightArm
			{
				OFFSET -8.34930 0.00000 0.00000
				CHANNELS 3 Xrotation Yrotation Zrotation
				JOINT RightForeArm
				{
					OFFSET -11.33484 0.00000 0.00000
					CHANNELS 3 Yrotation Zrotation Xrotation
					JOINT RightHand
					{
						OFFSET -9.69418 0.00000 0.00000
						CHANNELS 3 Xrotation Yrotation Zrotation
						JOINT RightHandThumb1
						{
							OFFSET 0.00000 0.00000 0.00000
							CHANNELS 3 Xrotation Zrotation Yrotation
							End Site
							{
								OFFSET 0.00000 0.00000 3.93700
							}
						}
						End Site
						{
							OFFSET -3.93700 0.00000 0.00000
						}
					}
				}
			}
		}
	}
	JOINT LeftUpLeg
	{
		OFFSET 2.70060 0.00000 0.00000
		CHANNELS 3 Xrotation Yrotation Zrotation
		JOINT LeftLeg
		{
			OFFSET 0.00000 -16.75718 0.00000
			CHANNELS 3 Xrotation Yrotation Zrotation
			JOINT LeftFoot
			{
				OFFSET 0.00000 -16.75915 0.00000
				CHANNELS 3 Xrotation Yrotation Zrotation
				JOINT LeftToeBase
				{
					OFFSET 0.00000 -1.51183 5.64225
					CHANNELS 3 Xrotation Yrotation Zrotation
					End Site
					{
						OFFSET 0.00000 0.00000 2.95275
					}
				}
			}
		}
	}
	JOINT RightUpLeg
	{
		OFFSET -2.70060 0.00000 0.00000
		CHANNELS 3 Xrotation Yrotation Zrotation
		JOINT RightLeg
		{
			OFFSET 0.00000 -16.75718 0.00000
			CHANNELS 3 Xrotation Yrotation Zrotation
			JOINT RightFoot
			{
				OFFSET 0.00000 -16.75915 0.00000
				CHANNELS 3 Xrotation Yrotation Zrotation
				JOINT RightToeBase
				{
					OFFSET 0.00000 -1.51183 5.64225
					CHANNELS 3 Xrotation Yrotation Zrotation
					End Site
					{
						OFFSET 0.00000 0.00000 2.95275
					}
				}
			}
		}
	}
}
MOTION
Frames:	18
Frame Time: 0.008333
-14.2046 35.0236 -13.9618 -172.1250 -5.4310 -178.8097 19.6118 -4.1430 3.4277 13.8464 -22.4279 -13.0063 -5.9366 25.5529 26.9968 -39.5587 -5.1493 -41.5927 -4.1581 -0.0000 10.7766 3.5279 15.5770 -12.9301 32.8623 0.0000 24.3270 2.6437 -12.8652 -30.9950 -36.2032 -3.9086 32.1945 6.4447 0.0000 16.1729 -0.1034 -1.5900 -3.7207 33.1476 -0.0000 -26.2537 7.7238 12.6170 5.1828 4.3300 -0.0000 -0.0000 -9.5120 16.6680 -3.8149 6.0401 -0.0000 -0.0000 10.8777 -16.6438 -3.1479 3.7908 -0.0000 -0.0000 -16.4718 -14.8358 0.8516 15.6157 -0.0000 -0.0000
-14.2054 35.0230 -13.9628 -172.1237 -5.4337 -178.8123 19.6109 -4.1343 3.4278 13.8832 -22.4736 -12.9801 -5.9262 25.5421 27.0106 -39.5765 -5.1496 -41.6107 -4.1253 -0.0000 10.7869 3.5160 15.5736 -12.8906 32.8623 0.0000 24.3270 2.6104 -12.8596 -31.0121 -36.1727 -3.9309 32.2226 6.4984 0.0000 16.1907 -0.1318 -1.9977 -3.7763 33.1476 -0.0000 -26.2537 7.7269 12.6298 5.1817 4.3240 -0.0000 -0.0000 -9.5330 16.6295 -3.7625 6.1137 -0.0000 -0.0000 10.8715 -16.6663 -3.1510 3.8072 -0.0000 -0.0000 -16.4761 -14.8034 0.8368 15.6050 -0.0000 -0.0000
-14.2043 35.0235 -13.9633 -172.1262 -5.4492 -178.8114 19.6012 -4.1461 3.4253 13.9134 -22.5213 -12.9828 -5.9143 25.5259 27.0063 -39.5886 -5.1401 -41.6005 -4.1249 0.0000 10.8094 3.5205 15.5596 -12.9175 32.8623 0.0000 24.3270 2.6292 -12.8486 -30.9897 -36.1898 -3.9433 32.1890 6.4782 -0.0000 16.2009 -0.1120 -1.7116 -3.7449 33.1476 -0.0000 -26.2537 7.7237 12.6117 5.1854 4.3244 -0.0000 -0.0000 -9.5202 16.6238 -3.7788 6.0642 -0.0000 -0.0000 10.8676 -16.6893 -3.1478 3.8121 -0.0000 -0.0000 -16.4786 -14.8099 0.8540 15.6083 -0.0000 -0.0000
-14.2037 35.0230 -13.9645 -172.1210 -5.4558 -178.8111 19.5995 -4.1574 3.4135 13.9736 -22.5470 -12.9498 -5.9027 25.5196 27.0203 -39.6038 -5.1247 -41.5981 -4.1324 0.0000 10.8408 3.5281 15.5349 -12.9640 32.8623 0.0000 24.3270 2.6388 -12.8249 -30.9707 -36.2057 -3.9636 32.1707 6.4700 0.0000 16.1989 -0.1067 -1.6346 -3.7362 33.1476 -0.0000 -26.2537 7.7307 12.6232 5.1888 4.3185 -0.0000 -0.0000 -9.5280 16.6075 -3.7765 6.0832 -0.0000 -0.0000 10.8746 -16.6920 -3.1442 3.8156 -0.0000 -0.0000 -16.4806 -14.8108 0.8484 15.5895 -0.0000 -0.0000
-14.2046 35.0232 -13.9656 -172.1206 -5.4579 -178.8111 19.5932 -4.1547 3.4153 14.0029 -22.5836 -12.9369 -5.8823 25.5065 27.0086 -39.6014 -5.1260 -41.5920 -4.1475 0.0000 10.8243 3.5204 15.4789 -12.9808 32.8623 0.0000 24.3270 2.6282 -12.8193 -30.9740 -36.2124 -3.9803 32.1743 6.4778 0.0000 16.2063 -0.1077 -1.6464 -3.7414 33.1476 -0.0000 -26.2537 7.7297 12.6353 5.1888 4.3223 -0.0000 -0.0000 -9.5253 16.5968 -3.8073 6.0676 -0.0000 -0.0000 10.8750 -16.6846 -3.1455 3.8206 -0.0000 -0.0000 -16.4852 -14.8182 0.8368 15.6069 -0.0000 -0.0000
-14.2054 35.0232 -13.9660 -172.1222 -5.4589 -178.8079 19.5865 -4.1539 3.4106 14.0342 -22.6452 -12.9112 -5.8786 25.4833 27.0025 -39.5841 -5.1270 -41.5750 -4.1463 0.0000 10.8186 3.5115 15.3938 -13.0164 32.8623 0.0000 24.3270 2.6182 -12.8168 -30.9810 -36.2931 -4.0411 32.1870 6.4838 0.0000 16.2851 -0.1067 -1.6363 -3.7306 33.1476 -0.0000 -26.2537 7.7279 12.6287 5.1817 4.3265 -0.0000 -0.0000 -9.5326 16.6017 -3.7808 6.1011 -0.0000 -0.0000 10.8769 -16.6640 -3.1489 3.8170 -0.0000 -0.0000 -16.4859 -14.8340 0.8330 15.6198 -0.0000 -0.0000
-14.2051 35.0233 -13.9664 -172.1222 -5.4620 -178.8094 19.5900 -4.1626 3.4111 14.0461 -22.6715 -12.8975 -5.8954 25.4695 27.0077 -39.5590 -5.1360 -41.5695 -4.1436 0.0000 10.7791 3.5045 15.3532 -13.0237 32.8623 0.0000 24.3270 2.6000 -12.8119 -30.9867 -36.2957 -4.0501 32.2085 6.4990 0.0000 16.2701 -0.1059 -1.6160 -3.7510 33.1476 -0.0000 -26.2537 7.7255 12.6263 5.1842 4.3295 -0.0000 -0.0000 -9.5329 16.6028 -3.7776 6.1023 -0.0000 -0.0000 10.8741 -16.6738 -3.1480 3.8239 -0.0000 -0.0000 -16.4849 -14.8314 0.8508 15.5950 -0.0000 -0.0000
-14.2052 35.0233 -13.9664 -172.1229 -5.4540 -178.8102 19.5885 -4.1588 3.4065 14.0690 -22.7250 -12.8693 -5.8987 25.4589 27.0118 -39.5512 -5.1425 -41.5722 -4.1399 0.0000 10.7697 3.5073 15.3566 -13.0311 32.8623 0.0000 24.3270 2.5977 -12.8075 -30.9932 -36.3041 -4.0550 32.2271 6.4987 0.0000 16.2506 -0.1056 -1.6007 -3.7740 33.1476 -0.0000 -26.2537 7.7219 12.6206 5.1855 4.3408 -0.0000 -0.0000 -9.5235 16.6462 -3.7872 6.0257 -0.0000 -0.0000 10.8692 -16.6892 -3.1492 3.8179 -0.0000 -0.0000 -16.4891 -14.8313 0.8713 15.6320 -0.0000 -0.0000
-14.2056 35.0233 -13.9666 -172.1217 -5.4573 -178.8099 19.5904 -4.1613 3.4042 14.0811 -22.7816 -12.8514 -5.8904 25.4488 27.0141 -39.5556 -5.1479 -41.5788 -4.1330 0.0000 10.7897 3.5005 15.3431 -13.0174 32.8623 0.0000 24.3270 2.5909 -12.8073 -30.9972 -36.3057 -4.0492 32.2423 6.4954 0.0000 16.2528 -0.1076 -1.6273 -3.7833 33.1476 -0.0000 -26.2537 7.7162 12.6239 5.1860 4.3534 -0.0000 -0.0000 -9.5541 16.6127 -3.7613 6.1181 -0.0000 -0.0000 10.8685 -16.6887 -3.1509 3.8302 -0.0000 -0.0000 -16.4843 -14.8177 0.8427 15.5866 -0.0000 -0.0000
-14.2054 35.0230 -13.9664 -172.1213 -5.4603 -178.8111 19.5941 -4.1640 3.3968 14.0826 -22.8285 -12.8294 -5.8934 25.4447 27.0287 -39.5720 -5.1599 -41.6017 -4.1367 -0.0000 10.7708 3.5199 15.4822 -12.9761 32.8623 0.0000 24.3270 2.5850 -12.7976 -30.9970 -36.2847 -4.0477 32.2532 6.5062 0.0000 16.2591 -0.1088 -1.6427 -3.7885 33.1476 -0.0000 -26.2537 7.7099 12.6199 5.1872 4.3646 -0.0000 -0.0000 -9.5529 16.6139 -3.7525 6.1009 -0.0000 -0.0000 10.8758 -16.6774 -3.1473 3.8208 -0.0000 -0.0000 -16.4792 -14.8229 0.8371 15.5765 -0.0000 -0.0000
-14.2053 35.0231 -13.9662 -172.1240 -5.4555 -178.8194 19.5993 -4.1588 3.4029 14.0661 -22.9099 -12.8061 -5.9726 25.3586 27.0407 -39.4958 -5.0634 -41.5238 -4.1768 0.0000 11.1405 3.5820 15.2226 -13.4098 32.8623 0.0000 24.3270 2.5750 -12.7877 -31.0069 -36.2705 -4.0480 32.2622 6.5115 -0.0000 16.2819 -0.1109 -1.6739 -3.7895 33.1476 -0.0000 -26.2537 7.6952 12.6184 5.1978 4.3844 -0.0000 -0.0000 -9.5467 16.6621 -3.7929 6.0357 -0.0000 -0.0000 10.8764 -16.6733 -3.1380 3.8162 -0.0000 -0.0000 -16.4784 -14.8290 0.8485 15.6046 -0.0000 -0.0000
-14.2050 35.0227 -13.9661 -172.1203 -5.4473 -178.8231 19.6072 -4.1407 3.3986 14.0779 -22.9556 -12.7793 -5.9917 25.3151 27.0582 -39.4822 -5.0340 -41.5285 -4.1827 0.0000 11.1798 3.5843 15.2158 -13.4235 32.8623 0.0000 24.3270 2.5379 -12.7589 -31.0328 -36.2384 -4.0773 32.2754 6.5011 0.0000 16.3245 -0.1096 -1.6649 -3.7673 33.1476 -0.0000 -26.2537 7.6943 12.6227 5.2038 4.3959 -0.0000 -0.0000 -9.5662 16.6162 -3.7491 6.1005 -0.0000 -0.0000 10.8760 -16.7116 -3.1390 3.8179 -0.0000 -0.0000 -16.4773 -14.7810 0.8571 15.5911 -0.0000 -0.0000
-14.2061 35.0229 -13.9657 -172.1250 -5.4414 -178.8253 19.6093 -4.1359 3.3988 14.0416 -23.0298 -12.7819 -5.9880 25.3201 27.0561 -39.4999 -5.0440 -41.5476 -4.1884 -0.0000 11.1803 3.5953 15.2629 -13.4242 32.8623 0.0000 24.3270 2.5228 -12.7438 -31.0425 -36.1448 -4.0418 32.2800 6.5119 0.0000 16.2919 -0.1128 -1.7135 -3.7660 33.1476 -0.0000 -26.2537 7.6903 12.6185 5.2025 4.3969 -0.0000 -0.0000 -9.5747 16.6221 -3.7423 6.0878 -0.0000 -0.0000 10.8699 -16.7186 -3.1407 3.8164 -0.0000 -0.0000 -16.4693 -14.7729 0.8711 15.5855 -0.0000 -0.0000
-14.2058 35.0225 -13.9666 -172.1283 -5.4338 -178.8248 19.6085 -4.1401 3.3916 14.0244 -23.0675 -12.7788 -5.9199 25.4029 27.0421 -39.5576 -5.1863 -41.6306 -4.1166 -0.0000 10.7857 3.5222 15.4402 -13.0178 32.8623 0.0000 24.3270 2.5691 -12.7607 -31.0403 -36.1881 -4.0354 32.2885 6.5068 0.0000 16.3240 -0.1110 -1.7051 -3.7248 33.1476 -0.0000 -26.2537 7.6909 12.6150 5.2001 4.3945 -0.0000 -0.0000 -9.5691 16.6342 -3.7587 6.0839 -0.0000 -0.0000 10.8738 -16.7133 -3.1402 3.8039 -0.0000 -0.0000 -16.4671 -14.7736 0.8676 15.5859 -0.0000 -0.0000
-14.2064 35.0227 -13.9669 -172.1324 -5.4240 -178.8267 19.6077 -4.1423 3.3905 14.0114 -23.1114 -12.7718 -5.9035 25.4228 27.0309 -39.5755 -5.2267 -41.6411 -4.0974 -0.0000 10.6785 3.5330 15.4937 -13.0138 32.8623 0.0000 24.3270 2.5481 -12.7455 -31.0663 -36.2570 -4.0730 32.3066 6.4692 -0.0000 16.4774 -0.1057 -1.6711 -3.6209 33.1476 -0.0000 -26.2537 7.6903 12.6275 5.2011 4.3930 -0.0000 -0.0000 -9.5730 16.6246 -3.7563 6.0689 -0.0000 -0.0000 10.8782 -16.6957 -3.1389 3.7873 -0.0000 -0.0000 -16.4687 -14.7806 0.8690 15.6156 -0.0000 -0.0000
-14.2067 35.0224 -13.9673 -172.1368 -5.4041 -178.8287 19.6027 -4.1284 3.3828 14.0214 -23.1383 -12.7578 -5.8832 25.4280 27.0164 -39.5973 -5.2287 -41.6433 -4.1219 0.0000 10.7104 3.5489 15.5046 -13.0619 32.8623 0.0000 24.3270 2.5319 -12.7217 -31.0756 -36.1740 -4.0511 32.3088 6.4912 -0.0000 16.4009 -0.1056 -1.6914 -3.5746 33.1476 -0.0000 -26.2537 7.6943 12.6451 5.1975 4.3817 -0.0000 -0.0000 -9.5668 16.6325 -3.7537 6.0822 -0.0000 -0.0000 10.8740 -16.6850 -3.1403 3.7849 -0.0000 -0.0000 -16.4671 -14.7749 0.8556 15.6054 -0.0000 -0.0000
-14.2068 35.0226 -13.9676 -172.1421 -5.3963 -178.8295 19.5966 -4.1279 3.3798 14.0170 -23.1592 -12.7635 -5.8703 25.4215 27.0084 -39.5944 -5.2321 -41.6414 -4.1410 0.0000 10.7057 3.5562 15.5210 -13.0750 32.8623 0.0000 24.3270 2.5465 -12.7349 -31.0881 -36.2438 -4.0560 32.3368 6.4594 0.0000 16.4202 -0.1040 -1.6768 -3.5494 33.1476 -0.0000 -26.2537 7.6932 12.6459 5.1956 4.3792 -0.0000 -0.0000 -9.5688 16.6335 -3.7404 6.0773 -0.0000 -0.0000 10.8708 -16.6942 -3.1413 3.7774 -0.0000 -0.0000 -16.4543 -14.7609 0.8569 15.5993 -0.0000 -0.0000
-14.2070 35.0227 -13.9673 -172.1511 -5.3776 -178.8326 19.5869 -4.1302 3.3743 14.0182 -23.1698 -12.7712 -5.8565 25.4370 26.9977 -39.6115 -5.2183 -41.6494 -4.1786 0.0000 10.7617 3.5519 15.5649 -13.0250 32.8623 0.0000 24.3270 2.5534 -12.7348 -31.0859 -36.2688 -4.0246 32.3475 6.4235 0.0000 16.4517 -0.0979 -1.5806 -3.5456 33.1476 -0.0000 -26.2537 7.6993 12.6436 5.1922 4.3574 -0.0000 -0.0000 -9.5632 16.6572 -3.7483 6.0995 -0.0000 -0.0000 10.8559 -16.6828 -3.1439 3.7838 -0.0000 -0.0000 -16.4588 -14.7640 0.8764 15.5935 -0.0000 -0.0000
